<?xml version="1.0" encoding="utf-8"?>
<!-- Generator: Adobe Illustrator 26.0.1, SVG Export Plug-In . SVG Version: 6.00 Build 0)  -->
<svg version="1.1" id="Layer_1" xmlns="http://www.w3.org/2000/svg" xmlns:xlink="http://www.w3.org/1999/xlink" x="0px" y="0px"
	 viewBox="0 0 254 67.5" style="enable-background:new 0 0 254 67.5;" xml:space="preserve">
<style type="text/css">
	.st0{fill:#F6921E;}
	.st1{fill:#00AABC;}
	.st2{fill:#FFFFFF;}
	.st3{fill:#EC1C24;}
</style>
<g>
	<g>
		<path class="st0" d="M72.6,58.6c0,0,63,15.4,138.7-0.7c7.2-1.3,43.7-12.2,36.6-27.3c-3.1-4.8-8.3-15-56.9-22.3
			c0,0,41.2,2.9,59.1,18.8c4.6,4.5,8.5,14.6-9.6,23.9c-4.8,2.5-38.9,20.5-120.1,15.7C112.9,66.4,79.2,61.6,72.6,58.6z"/>
	</g>
	<g>
		<path class="st1" d="M172.9,38c-0.9-4-1.5-5.4-2.8-5.4c-1.4,0-2,1.3-2,1.3l0.4,1.4l-12.2,13c0,0-1.9,1.6-1.7,2.6
			c0.2,1.1,2.9,1,2.9,1s1.2-2.7,2.3-4c0.3-0.3,1.1-1.2,2.1-2.4h9.7c0.4,1.7,0.8,3.1,1,3.8c0.7,2.3,3.8,2.5,4.6,0.8
			C175.5,49.6,173.9,42,172.9,38z M163.4,44.1c2.8-3.1,6.1-6.9,6.1-6.9s0.9,3.5,1.7,6.9H163.4z"/>
	</g>
	<g>
		<path class="st2" d="M177.9,1.3c0,0.6-0.7,1.1-1.5,1.1c-0.8,0-1.5-0.5-1.5-1.1c0-0.6,0.7-1.1,1.5-1.1
			C177.2,0.2,177.9,0.7,177.9,1.3z"/>
		<path class="st0" d="M176.4,2.6c-0.9,0-1.7-0.6-1.7-1.3c0-0.7,0.8-1.3,1.7-1.3c0.9,0,1.7,0.6,1.7,1.3C178.1,2,177.3,2.6,176.4,2.6
			z M176.4,0.4c-0.7,0-1.3,0.4-1.3,0.9c0,0.5,0.6,0.9,1.3,0.9c0.7,0,1.3-0.4,1.3-0.9C177.7,0.8,177.1,0.4,176.4,0.4z"/>
	</g>
	<g>
		<path class="st2" d="M178.4,9c0,0.7-0.8,1.2-1.8,1.2c-1,0-1.8-0.5-1.8-1.2c0-0.7,0.8-1.2,1.8-1.2C177.6,7.8,178.4,8.3,178.4,9z"/>
		<path class="st0" d="M176.6,10.4c-1.2,0-2.1-0.6-2.1-1.4c0-0.8,0.9-1.4,2.1-1.4c1.1,0,2,0.6,2,1.4
			C178.6,9.8,177.7,10.4,176.6,10.4z M176.6,8c-0.9,0-1.6,0.5-1.6,1c0,0.5,0.8,1,1.6,1c0.9,0,1.6-0.5,1.6-1
			C178.2,8.5,177.5,8,176.6,8z"/>
	</g>
	<g>
		<path class="st2" d="M186.7,4.8c0,0.8-1,1.4-2.2,1.4c-1.2,0-2.2-0.6-2.2-1.4c0-0.8,1-1.4,2.2-1.4C185.7,3.3,186.7,4,186.7,4.8z"/>
		<path class="st0" d="M184.5,6.4c-1.4,0-2.4-0.7-2.4-1.6c0-0.9,1.1-1.6,2.4-1.6c1.4,0,2.4,0.7,2.4,1.6
			C186.9,5.7,185.8,6.4,184.5,6.4z M184.5,3.5c-1.1,0-2,0.6-2,1.2c0,0.7,0.9,1.2,2,1.2c1.1,0,2-0.5,2-1.2
			C186.5,4.1,185.6,3.5,184.5,3.5z"/>
	</g>
	<g>
		<path class="st2" d="M187.8,13.5c0,0.8-1,1.4-2.2,1.4c-1.2,0-2.2-0.6-2.2-1.4c0-0.8,1-1.4,2.2-1.4C186.8,12,187.8,12.7,187.8,13.5
			z"/>
		<path class="st0" d="M185.6,15.1c-1.3,0-2.4-0.7-2.4-1.6c0-0.9,1.1-1.6,2.4-1.6c1.4,0,2.4,0.7,2.4,1.6
			C188,14.4,187,15.1,185.6,15.1z M185.6,12.2c-1.1,0-2,0.6-2,1.2c0,0.7,0.9,1.2,2,1.2c1.1,0,2-0.6,2-1.2S186.7,12.2,185.6,12.2z"/>
	</g>
	<g>
		<path class="st2" d="M179,17.5c0,0.8-1,1.4-2.2,1.4c-1.2,0-2.2-0.6-2.2-1.4c0-0.8,1-1.4,2.2-1.4C178,16.1,179,16.7,179,17.5z"/>
		<path class="st0" d="M176.8,19.1c-1.4,0-2.4-0.7-2.4-1.6c0-0.9,1.1-1.6,2.4-1.6c1.3,0,2.4,0.7,2.4,1.6
			C179.2,18.4,178.2,19.1,176.8,19.1z M176.8,16.3c-1.1,0-2,0.6-2,1.2c0,0.7,0.9,1.2,2,1.2c1.1,0,2-0.6,2-1.2
			C178.8,16.8,177.9,16.3,176.8,16.3z"/>
	</g>
	<g>
		<path class="st2" d="M195.7,8.7c0,0.9-1.1,1.6-2.4,1.6s-2.4-0.7-2.4-1.6c0-0.9,1.1-1.6,2.4-1.6S195.7,7.8,195.7,8.7z"/>
		<path class="st0" d="M193.3,10.5c-1.5,0-2.6-0.8-2.6-1.8c0-1,1.1-1.8,2.6-1.8c1.5,0,2.6,0.8,2.6,1.8
			C195.9,9.7,194.7,10.5,193.3,10.5z M193.3,7.3c-1.2,0-2.2,0.6-2.2,1.4c0,0.7,1,1.3,2.2,1.3c1.2,0,2.2-0.6,2.2-1.3
			C195.5,8,194.5,7.3,193.3,7.3z"/>
	</g>
	<g>
		<g>
			<path class="st2" d="M131.5,21.1h-3.2v-0.9h7.8v0.9h-3.2v7.5h-1.4V21.1z"/>
		</g>
		<g>
			<path class="st2" d="M142.7,24.7h-4.1v3h4.5v0.9h-5.9v-8.5h5.7v0.9h-4.3v2.7h4.1V24.7z"/>
		</g>
		<g>
			<path class="st2" d="M152.3,28.4c-0.5,0.2-1.5,0.4-2.8,0.4c-3,0-5.2-1.5-5.2-4.3c0-2.7,2.2-4.4,5.5-4.4c1.3,0,2.1,0.2,2.5,0.4
				l-0.3,0.9c-0.5-0.2-1.2-0.4-2.1-0.4c-2.5,0-4.1,1.3-4.1,3.5c0,2.1,1.5,3.4,4,3.4c0.8,0,1.7-0.1,2.2-0.4L152.3,28.4z"/>
		</g>
		<g>
			<path class="st2" d="M155.3,20.2v3.5h5.1v-3.5h1.4v8.5h-1.4v-4h-5.1v4H154v-8.5H155.3z"/>
		</g>
		<g>
			<path class="st2" d="M164.1,28.7v-8.5h1.5l3.4,4.3c0.8,1,1.4,1.9,1.9,2.8l0,0c-0.1-1.1-0.2-2.2-0.2-3.5v-3.6h1.3v8.5h-1.4
				l-3.3-4.3c-0.7-0.9-1.4-1.9-1.9-2.8l0,0c0.1,1.1,0.1,2.1,0.1,3.5v3.6H164.1z"/>
		</g>
		<g>
			<path class="st2" d="M178.5,27.9c-2.1,0-3.4-1.6-3.4-3.4c0-1.8,1.1-3.5,3.4-3.5c2.3,0,3.3,1.8,3.3,3.4
				C181.9,26.3,180.7,27.9,178.5,27.9L178.5,27.9z M178.5,28.8c2.7,0,4.9-1.6,4.9-4.5c0-2.5-1.9-4.3-4.7-4.3c-2.8,0-4.9,1.8-4.9,4.4
				C173.7,27.1,175.7,28.8,178.5,28.8L178.5,28.8z"/>
		</g>
		<g>
			<path class="st2" d="M185.1,20.2h1.4v7.5h4.5v0.9h-5.9V20.2z"/>
		</g>
		<g>
			<path class="st2" d="M196,27.9c-2.1,0-3.3-1.6-3.3-3.4c0-1.8,1.1-3.5,3.4-3.5c2.3,0,3.3,1.8,3.3,3.4
				C199.4,26.3,198.1,27.9,196,27.9L196,27.9z M196,28.8c2.7,0,4.9-1.6,4.9-4.5c0-2.5-1.9-4.3-4.7-4.3c-2.8,0-4.9,1.8-4.9,4.4
				C191.2,27.1,193.2,28.8,196,28.8L196,28.8z"/>
		</g>
		<g>
			<path class="st2" d="M210.6,28.3c-0.6,0.2-1.8,0.5-3.2,0.5c-1.6,0-2.9-0.3-3.9-1.1c-0.9-0.7-1.5-1.8-1.5-3.2
				c0-2.5,2.2-4.4,5.7-4.4c1.2,0,2.2,0.2,2.6,0.4l-0.3,0.9c-0.6-0.2-1.3-0.4-2.3-0.4c-2.6,0-4.2,1.3-4.2,3.4c0,2.1,1.6,3.4,4,3.4
				c0.9,0,1.5-0.1,1.8-0.2v-2.5h-2.1v-0.9h3.5V28.3z"/>
		</g>
		<g>
			<path class="st2" d="M215,28.7v-3.6l-3.3-4.9h1.6l1.5,2.3c0.4,0.6,0.7,1.2,1.1,1.7h0c0.3-0.6,0.7-1.1,1.1-1.7l1.5-2.3h1.5
				l-3.5,4.9v3.6H215z"/>
		</g>
	</g>
	<g>
		<path class="st3" d="M0.8,52.6L0,52c0,0,1.3-2.9,1.3-4.3C1.3,46.2,3,33.4,3,33.4l1.9,3.7L7,33.8l0.5,2.3c0,0,1.5-2.7,1.8-4
			c0.3-1.3,1.6-6.2,1.6-6.2l-3.7,5.3l1.3-4.3l-1.3,1.4l4-11.9l-5.8-5.5c0,0-1.2,2-2.7,3.2c-1.5,1.2-1.8,0.9-1.7,0.2
			c0.2-2.4,4.3-6,5.7-7.4c1.3-1.4,4.3-1.4,5.4-0.8c1,0.6,6.3,6.3,6.3,6.3s1.5-1.3,1.8-0.9c0.3,0.4-0.2,2.4-0.2,2.4l17.5,24.8
			c2.7-12.2,8-18.8,8.1-19.1c0.2-0.3,0.8-1.7,1.4-2.8c0.6-1.1,0.9-2.7,1.3-2.8c0.4-0.2,0.7-0.2,1.1-1c0.4-0.8,0.6-1.1,1-1.4
			c0.4-0.3,1.1-0.2,1.8-0.3c0.7-0.1,0.2,0,0.5-0.2c0.3-0.2,1.3-0.7,2.2-0.9c0.9-0.2,0.6-0.9,1.7-1.4c1.1-0.5,1.3,0.8,1.2,2
			c-0.1,1.2-1.3,4.4-1.5,5c-0.2,0.5-0.1,4.2-0.1,5.1c0,1-2,1.1-3.1,1c-1.1-0.1-2.5-0.7-3.6,0c-5.2,9.2-7.3,22.6-7.3,22.6l1.3-2.4
			l-0.8,5.6l-0.6-0.2v1.8l1.1,1c0,0-1.5,1.2-7,4.1c-0.7-0.6-0.7-5.1-0.7-5.1L34.3,49c0,0,0-0.6,0.1-1c0.1-0.4-2.2-3.6-2.2-3.6
			l-1.3-0.9l-0.1-0.8c0,0-2-2.3-2.6-3.2c-0.6-0.9-2.2-3.8-3-4.7c-0.8-0.9-8.4-11.4-8.4-11.4l-0.8,3.2c0,0-0.6,0.2-1,0.6
			c-0.4,0.4-2.4,5.8-2.8,6.5c-0.4,0.7-3,9-4,11.6c-1,2.6-0.5,3-0.2,3.5c0.3,0.5-1.7,1.7-1.7,1.7s-0.2,0.6,0.1,1.6
			c0.2,1,0,1.3-0.2,1.8c-0.2,0.5-1.6,0.3-1.6,0.3s0.1-0.7-0.8-0.7c-0.9,0-1.3,0.2-1.5,0.6c-0.2,0.5-2.1,1-2.1,1L0.8,52.6z
			 M39.4,40.4l0.7,0.1c1.3-8.6,7.8-20.9,7.9-21l-0.7-0.4C47.3,19.3,40.7,31.7,39.4,40.4z M37.1,52.7l0.7-0.1v-3.9l-0.7-0.1V52.7z"/>
	</g>
	<g>
		<g>
			
				<rect x="24.8" y="34.7" transform="matrix(0.8286 -0.5599 0.5599 0.8286 -18.0812 20.9515)" class="st2" width="0.7" height="10.6"/>
		</g>
		<g>
			<polygon class="st2" points="15.8,26.8 20.1,33.2 20.8,32.8 16.4,26.4 			"/>
		</g>
	</g>
	<g>
		<path class="st3" d="M240.9,40.4c-1.8,0-3,0.3-4.2,0.9c-1.1,0.6-3.2,2.2-11.9,5c-0.9,1.2-1.7,1.7-1.7,1.7l0.4-1.3
			c0,0-1.7-0.1-4.2,0.6c-2.5,0.7-3.9-0.2-2.7-2.7c1.5-1.5,2.8-0.9,6.5-2.2c3.7-1.3,18.6-8.4,18.6-8.4s-20.2,4.8-21.9,5.4
			c-1.7,0.6-1.5-0.2,0.6-2.7c2-2.5,8.3-8.9,18.2-11.1c-0.7-1.9,0.1-2.7-5.2-1.6c2-1.1,2.6-1.3,2.6-1.3l-0.7-0.5l-0.1-0.6
			c0,0-15.8,5-23.1,19.8c0,0-1-0.6,0.9-3.4c-2.2,3-3,5.3-3,7.7c-0.9,1.3-0.9,1.3-0.9,1.3l1.8-0.4c0,0,4,3.9,11.7,3
			c4.3-0.7,14.6-3.8,20-8.4C239.8,42.2,238.2,42.5,240.9,40.4z"/>
	</g>
	<g>
		<path class="st1" d="M54,35.2c4.1,0.1,9.8,0.1,9.8,0.1s1.2-1.2,1.1-2.2c0-0.6-1.4-0.2-1.4-0.2l-13.2,0.5c0,0,0.9,3.1-4.8,18.2
			c10.1,0.6,13.6,0.9,13.8-0.5c0.2-1.4,0.1-1.4-1.9-1.3c-2,0.1-7.8,0.1-7.8,0.1l2-6.7c0,0,7.3-0.1,8.1-0.3c0.7-0.2,1.6-0.2,1.8-1.8
			C59,41.2,52,41.2,52,41.2S53.4,36.1,54,35.2z"/>
	</g>
	<g>
		<path class="st1" d="M76.3,40.5c-1-1.5-3.8-6.6-4.3-7.4c-0.5-0.7-1.3-0.2-2.2,0c-0.9,0.2-1.8,1.9-1.8,1.9s1.9,0.4,5.9,7.6
			c-3.3,2-10.7,7-11.4,8.9c3.9,0.6,3.9,0.6,3.9,0.6S65,50.1,74.9,44c3.4,5.4,4.3,7.5,5.2,7.8c0.8,0.3,2.4,0.1,3.3-1.7
			c-2.8-3.3-5.9-8.2-5.9-8.2s8.1-4.3,10.6-8.6c-2.8-0.1-4-0.2-4-0.2S85.3,35,76.3,40.5z"/>
	</g>
	<g>
		<path class="st1" d="M102.6,32.8C97,32.7,92.9,33,92.9,33s-0.4,6.2-1.6,9.6c-1.2,3.4-3.1,6.7-2.6,8.1c0.4,1.4,3.1,1.7,8,1.2
			c4.8-0.5,15.4-2.3,16.5-12.2C113.2,36.2,108.3,32.9,102.6,32.8z M107.4,45.4c-5.7,6.3-15.1,4.1-15.1,4.1L96.9,35
			c0,0,4.6-0.4,8.1,0.4C110.4,37.5,110.7,40.9,107.4,45.4z"/>
	</g>
	<g>
		<path class="st1" d="M132.9,35.3c0,0,1.1-1.2,1-2.2c0-0.6-1.4-0.2-1.4-0.2l-13.3,0.5c0,0,1,3.1-4.8,18.2
			c10.1,0.6,13.6,0.9,13.8-0.5c0.2-1.4,0.1-1.4-1.9-1.3c-2,0.1-7.8,0.1-7.8,0.1l2-6.7c0,0,7.3-0.1,8.1-0.3c0.7-0.2,1.6-0.2,1.8-1.8
			c-2.4,0.1-9.4,0.1-9.4,0.1s1.4-5,2-6C127.2,35.3,132.9,35.3,132.9,35.3z"/>
	</g>
	<g>
		<path class="st1" d="M155.8,32.5c0,0-12.5-1.6-20,6.7c-1.3,1.7-5.5,9.2,4.1,12c5.4,1.5,11.9,0.7,12.3-0.8c0.4-1.6-0.5-1.7-2.3-1.1
			c-1.8,0.6-11.6,1.9-12.6-5.1c0.1-3.9,4.3-9.3,13.1-9.3c3.6,0.2,5.1,0.5,6.2-0.4C157.7,33.5,156.5,32.5,155.8,32.5z"/>
	</g>
	<g>
		<path class="st1" d="M195.4,32.8c-5.6-0.1-9.7,0.2-9.7,0.2s-0.4,6.2-1.6,9.6c-1.2,3.4-3,6.7-2.6,8.1c0.4,1.4,3.2,1.7,8,1.2
			c4.8-0.5,15.4-2.3,16.5-12.2C206.1,36.2,201.2,32.9,195.4,32.8z M200.3,45.4c-5.7,6.3-15.1,4.1-15.1,4.1l4.6-14.5
			c0,0,4.6-0.4,8.1,0.4C203.2,37.5,203.5,40.9,200.3,45.4z"/>
	</g>
</g>
</svg>
